<svg width="128" height="128" viewBox="0 0 128 128" fill="none" xmlns="http://www.w3.org/2000/svg">
<rect width="128" height="128" fill="#1F1F1F"/>
<path d="M39.1134 73.724C39.0665 73.8177 38.9415 73.9115 38.8686 73.9844C38.8113 72.4375 38.7696 70.901 38.8529 69.3542C38.9363 67.8333 39.155 66.3281 39.4571 64.8385C39.6654 63.8281 39.905 62.8021 40.2332 61.8177C40.504 61.0052 40.78 60.1875 41.1186 59.3906C42.4571 56.2187 44.4415 53.2135 46.9207 50.8177C48.4936 49.3021 50.3009 47.9896 52.1967 46.901C53.6967 46.0417 55.2852 45.2813 56.9154 44.6979C59.28 43.849 61.754 43.2865 64.2071 42.7448L70.3738 41.6198L79.5352 40.5L83.7592 40.0729C85.3946 39.9063 87.0873 39.875 88.6707 39.4167C89.0352 39.3125 89.3998 39.2031 89.7384 39.0313C90.2019 38.7917 90.4519 38.4948 90.6186 38L90.655 38.276L90.9727 40.8229C91.0196 41.224 91.004 41.6302 91.0248 42.026L91.0925 42.9115L91.1082 45.6771L91.0925 47.4844L91.0248 48.5313L90.9988 49.4375L90.7592 51.5313L90.4936 53.4948C89.8998 56.974 88.8269 60.4167 87.1602 63.5313C86.8894 64.0313 86.6342 64.5365 86.3321 65.0156C85.7488 65.9479 85.0717 66.8073 84.3894 67.6667L82.7644 69.3802C82.5665 69.5729 82.3373 69.8281 82.0873 69.9635C82.0873 69.9792 82.0613 69.9896 82.0509 70.0052L81.0561 70.8229C79.4519 72.0833 77.6134 73.0781 75.7175 73.8229L71.9363 75.1146L69.7644 75.8333L65.3217 77.0521L62.4363 77.8438L60.5613 78.3542L55.0457 79.6719L47.4259 81.6615C45.3269 82.3177 43.2904 83.0729 41.3738 84.1615C39.9154 84.9896 38.5769 86.0781 37.504 87.375C36.9675 88.026 36.4988 88.724 36.0092 89.4063C35.9832 89.2604 36.0196 89.0521 36.03 88.8958C36.0717 88.1146 36.2436 87.3594 36.4415 86.6042C36.7332 85.4688 37.1029 84.3594 37.5404 83.2708C38.3373 81.2708 39.379 79.349 40.5821 77.5625C41.0873 76.8125 41.5821 76.0417 42.1394 75.3281C46.5144 69.7396 52.1342 65.2135 58.2852 61.7083L62.754 59.3698C62.9779 59.2656 64.0196 58.8229 64.0925 58.6979C64.0665 58.6771 64.0613 58.6771 64.03 58.6667C63.7957 58.6146 63.3998 58.6927 63.1654 58.7396L61.6602 59.0938C59.7644 59.5677 57.9363 60.3073 56.1654 61.1094L54.8373 61.6927C53.2436 62.4688 51.7175 63.3594 50.2332 64.3229L48.4311 65.5104L44.7436 68.3385L39.1134 73.724ZM39.1134 73.724L44.7436 68.3385L44.7019 68.3333C44.6394 68.3229 44.6654 68.3281 44.6082 68.3073L44.5457 68.3854H44.4936C44.4571 68.4531 44.4675 68.4531 44.3998 68.4844C44.2748 68.5417 44.155 68.6979 44.0561 68.7917L44.0248 68.8073C43.9936 68.8333 43.9832 68.849 43.9623 68.8802C43.8894 68.9115 43.879 68.974 43.8217 68.9948C43.7644 69.0156 43.7227 69.0677 43.6759 69.1094L43.4415 69.3177L43.3998 69.349L43.3842 69.375C43.3582 69.4167 43.3373 69.4167 43.3009 69.4479L43.2332 69.5104L43.2071 69.5365C43.1707 69.5677 43.1915 69.5521 43.1602 69.5833C43.1186 69.6302 43.0717 69.6667 43.0196 69.7031C42.879 69.7969 42.7227 69.9531 42.6029 70.0781C42.379 70.3177 42.0873 70.5208 41.879 70.7708C41.8477 70.8177 41.8269 70.8177 41.7904 70.849C41.754 70.8802 41.7279 70.9167 41.6863 70.9531C41.5821 71.0417 41.4623 71.1667 41.379 71.2708C41.3373 71.3177 41.3217 71.3177 41.28 71.349C41.1446 71.4635 40.9988 71.6354 40.8738 71.7604C40.8477 71.7917 40.8477 71.8073 40.8061 71.8333C40.6759 71.9271 40.53 72.1094 40.405 72.2292L39.4988 73.1771C39.3582 73.3229 39.1811 73.4583 39.0665 73.6198L39.0873 73.6615C39.1134 73.7083 39.1082 73.6927 39.1134 73.724ZM82.0873 69.9635C82.3373 69.8281 82.5665 69.5729 82.7644 69.3802L84.3894 67.6667C84.3477 67.6354 84.3425 67.6302 84.2852 67.6198C84.2175 67.6979 84.1446 67.7708 84.0873 67.8542C83.9154 68.0885 83.6602 68.2656 83.4675 68.4844C83.0665 68.9583 82.5873 69.3698 82.1446 69.8021L82.0717 69.8542L82.0873 69.9635Z" fill="#FCC636"/>
</svg>
